<svg width="64" height="64" viewBox="0 0 64 64" fill="none" xmlns="http://www.w3.org/2000/svg">
<rect width="64" height="64" rx="32" fill="url(#paint0_linear_35_3117)"/>
<path d="M29.8375 54C24.5191 50.9109 19.3468 47.9067 14.0535 44.8322C15.2874 44.4001 15.4825 43.5447 15.4782 42.4757C15.4498 35.4704 15.4561 28.4651 15.473 21.4599C15.4754 20.4485 15.3256 19.5848 14 19.1936C16.418 17.7897 18.6519 16.4928 21.0892 15.0778C21.0892 15.91 21.0892 16.4957 21.0892 17.0813C21.095 25.4636 21.095 33.857 21.095 42.2334C21.0859 43.5122 21.4202 44.1782 22.5593 44.8193C23.4796 45.3374 23.6177 45.3853 24.3217 45.7831C24.3217 45.2079 24.3256 44.8575 24.3217 44.4508C24.3217 34.4411 24.3412 24.5732 24.3217 14.3762C24.3193 13.5286 24.5109 13.0116 25.2849 12.6081C26.7856 11.8261 28.2282 10.931 29.8375 10L29.8375 54Z" fill="white"/>
<path fill-rule="evenodd" clip-rule="evenodd" d="M49.1081 44.8322L33.3241 54L33.3241 10C33.8034 10.2773 34.2678 10.5513 34.7235 10.8202C35.7978 11.4541 36.823 12.059 37.8768 12.6081C38.6507 13.0116 38.8423 13.5286 38.84 14.3762C38.8269 21.1759 38.8313 27.8293 38.8356 34.476C38.8378 37.7968 38.84 41.1159 38.84 44.4508C38.8375 44.7097 38.8382 44.9458 38.839 45.2315C38.8394 45.3947 38.84 45.574 38.84 45.7831C39.174 45.5943 39.3806 45.4844 39.6038 45.3656C39.851 45.234 40.1186 45.0916 40.6023 44.8193C41.7415 44.1782 42.0757 43.5122 42.0666 42.2334V42.2253C42.0666 33.8516 42.0666 25.4609 42.0724 17.0813V15.0778L49.1616 19.1936C47.836 19.5848 47.6863 20.4485 47.6887 21.4599C47.7056 28.4651 47.7118 35.4704 47.6835 42.4757C47.6791 43.5447 47.8742 44.4001 49.1081 44.8322ZM36.6974 14.3649L36.0781 13.1004L35.4591 14.3649L34.0746 14.5676L35.0763 15.5519L34.8399 16.9416L36.0781 16.2854L37.3166 16.9416L37.0801 15.5519L38.0819 14.5676L36.6974 14.3649Z" fill="white"/>
<defs>
<linearGradient id="paint0_linear_35_3117" x1="0" y1="32" x2="64" y2="32" gradientUnits="userSpaceOnUse">
<stop stop-color="#67C99D"/>
<stop offset="1" stop-color="#28513F"/>
</linearGradient>
</defs>
</svg>
